<?xml version="1.0" standalone="no"?>
<!DOCTYPE svg PUBLIC "-//W3C//DTD SVG 20010904//EN"
 "http://www.w3.org/TR/2001/REC-SVG-20010904/DTD/svg10.dtd">
<svg version="1.0" xmlns="http://www.w3.org/2000/svg"
 width="534.000000pt" height="534.000000pt" viewBox="0 0 534.000000 534.000000"
 preserveAspectRatio="xMidYMid meet">
<metadata>
Created by potrace 1.11, written by Peter Selinger 2001-2013
</metadata>
<g transform="translate(0.000000,534.000000) scale(0.100000,-0.100000)"
fill="#000000" stroke="none">
<path d="M3237 5124 c-1 -1 -200 -5 -442 -9 -242 -3 -474 -8 -515 -10 -119 -4
-349 -16 -420 -20 -103 -7 -222 -16 -265 -21 -22 -2 -65 -6 -95 -9 -94 -9
-174 -17 -190 -20 -8 -2 -44 -6 -80 -10 -36 -4 -72 -9 -81 -10 -9 -2 -40 -6
-69 -10 -29 -4 -60 -8 -69 -10 -9 -1 -52 -8 -96 -15 -44 -7 -89 -14 -100 -16
-11 -2 -47 -9 -80 -14 -134 -24 -342 -74 -376 -91 -20 -10 -43 -28 -51 -41
-17 -26 -34 -99 -43 -188 -3 -30 -8 -66 -10 -80 -2 -14 -7 -50 -10 -80 -4 -30
-8 -66 -10 -80 -2 -14 -6 -50 -10 -80 -4 -30 -8 -66 -10 -80 -2 -14 -6 -47 -9
-75 -4 -27 -8 -69 -11 -92 -3 -24 -7 -62 -10 -85 -2 -24 -7 -65 -10 -93 -12
-96 -14 -120 -20 -185 -3 -36 -8 -81 -10 -100 -2 -19 -7 -64 -10 -100 -3 -36
-8 -85 -10 -110 -3 -25 -7 -79 -10 -120 -3 -41 -8 -95 -10 -120 -3 -25 -7 -88
-10 -140 -3 -52 -8 -126 -10 -165 -21 -295 -32 -555 -50 -1130 -28 -905 -28
-989 -11 -1095 20 -126 51 -225 79 -251 54 -52 90 -59 339 -65 128 -3 269 -6
313 -8 431 -19 761 -25 1150 -24 627 2 1442 1 2255 -4 589 -4 841 -2 880 6
112 23 183 89 230 212 31 85 42 166 55 444 7 123 7 964 0 1600 -14 1491 -20
1838 -30 1930 -5 52 -17 113 -50 260 -13 58 -26 123 -29 145 -13 89 -29 136
-50 151 -28 17 -103 31 -221 39 -49 3 -106 8 -125 10 -19 2 -84 7 -145 10 -60
3 -135 8 -165 10 -30 2 -116 7 -190 11 -74 3 -162 7 -195 9 -120 7 -884 22
-888 19z"/>
</g>
</svg>
